<svg xmlns="http://www.w3.org/2000/svg" viewBox="0 0 354.5 172.48"><defs><style>.cls-1{fill:#f09b86;}.cls-2{fill:#727286;}.cls-3{fill:#ebcf96;}.cls-4{fill:#fff;}.cls-5{fill:#d2d9e3;}.cls-6{fill:#414042;}.cls-7{opacity:0.3;}.cls-8{fill:#231f20;}.cls-9{fill:#ccb9ac;}.cls-10{fill:#535151;}.cls-11{opacity:0.46;}.cls-12{fill:#fffffe;}.cls-13{fill:#f1f2f2;}.cls-14{fill:#a7a9ac;}.cls-15{fill:#e0632f;}</style></defs><title>developer</title><g id="code"><g id="_Group_" data-name="&lt;Group&gt;"><g id="_Group_2" data-name="&lt;Group&gt;"><rect class="cls-1" x="203.18" y="60.03" width="10.96" height="1.44"/></g><g id="_Group_3" data-name="&lt;Group&gt;"><rect class="cls-2" x="208.67" y="64.93" width="7.55" height="1.44"/></g><g id="_Group_4" data-name="&lt;Group&gt;"><rect class="cls-2" x="232.92" y="64.93" width="52.67" height="1.44"/></g><g id="_Group_5" data-name="&lt;Group&gt;"><rect class="cls-3" x="268.92" y="120.83" width="8.5" height="1.44" transform="translate(498.83 187.2) rotate(180)"/></g><g id="_Group_6" data-name="&lt;Group&gt;"><rect class="cls-2" x="211.24" y="69.02" width="15.05" height="1.44"/></g><g id="_Group_7" data-name="&lt;Group&gt;"><rect class="cls-1" x="217.33" y="74.8" width="19.1" height="1.44"/></g><g id="_Group_8" data-name="&lt;Group&gt;"><rect class="cls-2" x="203.18" y="80.24" width="20.87" height="1.44"/></g><g id="_Group_9" data-name="&lt;Group&gt;"><rect class="cls-2" x="273.79" y="136.14" width="15.08" height="1.44" transform="translate(515.15 217.82) rotate(180)"/></g><g id="_Group_10" data-name="&lt;Group&gt;"><rect class="cls-2" x="208.67" y="85.68" width="27.98" height="1.44"/></g><g id="_Group_11" data-name="&lt;Group&gt;"><rect class="cls-2" x="295.58" y="141.58" width="18.6" height="1.44" transform="translate(562.26 228.7) rotate(180)"/></g><g id="_Group_12" data-name="&lt;Group&gt;"><rect class="cls-3" x="237.83" y="85.68" width="8.78" height="1.44"/></g><g id="_Group_13" data-name="&lt;Group&gt;"><rect class="cls-2" x="217.97" y="91.12" width="24.49" height="1.44"/></g><g id="_Group_14" data-name="&lt;Group&gt;"><rect class="cls-1" x="258.74" y="147.02" width="5.13" height="1.44" transform="translate(475.1 239.57) rotate(180)"/></g><g id="_Group_15" data-name="&lt;Group&gt;"><rect class="cls-2" x="203.18" y="95.11" width="16.7" height="1.44"/></g><g id="_Group_16" data-name="&lt;Group&gt;"><rect class="cls-2" x="221.18" y="95.11" width="5.74" height="1.44"/></g><g id="_Group_17" data-name="&lt;Group&gt;"><rect class="cls-2" x="228.52" y="95.11" width="27.4" height="1.44"/></g><g id="_Group_18" data-name="&lt;Group&gt;"><rect class="cls-2" x="305.55" y="151.02" width="24.74" height="1.44" transform="translate(588.35 247.56) rotate(180)"/></g><g id="_Group_19" data-name="&lt;Group&gt;"><rect class="cls-3" x="208.67" y="100.55" width="8.67" height="1.44"/></g><g id="_Group_20" data-name="&lt;Group&gt;"><rect class="cls-2" x="267.39" y="156.45" width="20.57" height="1.44" transform="translate(507.85 258.44) rotate(180)"/></g><g id="_Group_21" data-name="&lt;Group&gt;"><rect class="cls-2" x="213.33" y="105.99" width="16.7" height="1.44"/></g><g id="_Group_22" data-name="&lt;Group&gt;"><rect class="cls-1" x="233.54" y="105.99" width="16.7" height="1.44"/></g><g id="_Group_23" data-name="&lt;Group&gt;"><rect class="cls-2" x="252.84" y="105.99" width="15.73" height="1.44"/></g><g id="_Group_24" data-name="&lt;Group&gt;"><rect class="cls-2" x="326.82" y="130.71" width="4.72" height="1.44" transform="translate(610.87 206.94) rotate(180)"/></g><g id="_Group_25" data-name="&lt;Group&gt;"><rect class="cls-2" x="238.12" y="74.8" width="39.11" height="1.44"/></g><g id="_Group_26" data-name="&lt;Group&gt;"><rect class="cls-2" x="217.33" y="60.03" width="44.46" height="1.44"/></g><g id="_Group_27" data-name="&lt;Group&gt;"><rect class="cls-2" x="195.75" y="57.89" width="2.31" height="2.31"/></g><g id="_Group_28" data-name="&lt;Group&gt;"><rect class="cls-2" x="195.75" y="63.97" width="2.31" height="2.31"/></g><g id="_Group_29" data-name="&lt;Group&gt;"><rect class="cls-2" x="195.75" y="70.05" width="2.31" height="2.31"/></g><g id="_Group_30" data-name="&lt;Group&gt;"><rect class="cls-2" x="195.75" y="76.14" width="2.31" height="2.31"/></g><g id="_Group_31" data-name="&lt;Group&gt;"><rect class="cls-2" x="195.75" y="82.22" width="2.31" height="2.31"/></g><g id="_Group_32" data-name="&lt;Group&gt;"><rect class="cls-2" x="195.75" y="88.31" width="2.31" height="2.31"/></g><g id="_Group_33" data-name="&lt;Group&gt;"><rect class="cls-2" x="195.75" y="94.39" width="2.31" height="2.31"/></g><g id="_Group_34" data-name="&lt;Group&gt;"><rect class="cls-2" x="195.75" y="100.48" width="2.31" height="2.31"/></g><g id="_Group_35" data-name="&lt;Group&gt;"><rect class="cls-2" x="195.75" y="106.56" width="2.31" height="2.31"/></g><g id="_Group_36" data-name="&lt;Group&gt;"><rect class="cls-2" x="195.75" y="112.64" width="2.31" height="2.31"/></g></g><g id="_Group_37" data-name="&lt;Group&gt;"><g id="_Group_38" data-name="&lt;Group&gt;"><rect class="cls-4" x="198.76" y="115.86" width="77.1" height="55.87" rx="4.63" ry="4.63"/></g><g id="_Group_39" data-name="&lt;Group&gt;"><path class="cls-5" d="M246.26,183.68v-8a3.86,3.86,0,0,1,3.86-3.86H319.5a3.86,3.86,0,0,1,3.86,3.86v8Z" transform="translate(-47.5 -55.9)"/></g><g id="_Group_40" data-name="&lt;Group&gt;"><path id="_Path_" data-name="&lt;Path&gt;" class="cls-6" d="M324.12,227.4h-1.5V175.63a3.12,3.12,0,0,0-3.11-3.11H269.63V171H319.5a4.62,4.62,0,0,1,4.61,4.61Z" transform="translate(-47.5 -55.9)"/></g><g id="_Group_41" data-name="&lt;Group&gt;"><rect id="_Path_2" data-name="&lt;Path&gt;" class="cls-6" x="224.26" y="127.23" width="51.6" height="1.5"/></g><g id="_Group_42" data-name="&lt;Group&gt;"><rect id="_Path_3" data-name="&lt;Path&gt;" class="cls-6" x="204.99" y="121.72" width="1.33" height="1.5"/></g><g id="_Group_43" data-name="&lt;Group&gt;"><rect id="_Path_4" data-name="&lt;Path&gt;" class="cls-6" x="209.94" y="121.72" width="1.33" height="1.5"/></g><g id="_Group_44" data-name="&lt;Group&gt;"><rect id="_Path_5" data-name="&lt;Path&gt;" class="cls-6" x="214.89" y="121.72" width="1.33" height="1.5"/></g><g id="_Group_45" data-name="&lt;Group&gt;"><g id="_Group_46" data-name="&lt;Group&gt;"><path class="cls-2" d="M270,203.65v-2.34l8.29-3.91v2.51l-5.47,2.52,5.47,2.59v2.52Z" transform="translate(-47.5 -55.9)"/></g><g id="_Group_47" data-name="&lt;Group&gt;"><path class="cls-2" d="M287.18,195.49h2.42l-7.16,15.64H280Z" transform="translate(-47.5 -55.9)"/></g><g id="_Group_48" data-name="&lt;Group&gt;"><path class="cls-2" d="M299.6,201.32v2.34l-8.29,3.91V205l5.47-2.59-5.47-2.52v-2.51Z" transform="translate(-47.5 -55.9)"/></g></g></g></g><g id="avatar"><g id="_Group_49" data-name="&lt;Group&gt;" class="cls-7"><g id="_Group_50" data-name="&lt;Group&gt;"><path class="cls-8" d="M146.42,188.81v38.46h21.8V143.19A58.62,58.62,0,0,0,146.42,188.81Z" transform="translate(-47.5 -55.9)"/></g></g><g id="_Group_51" data-name="&lt;Group&gt;" class="cls-7"><path id="_Path_6" data-name="&lt;Path&gt;" class="cls-8" d="M250.89,171.77h-.76a3.86,3.86,0,0,0-3.86,3.86V223a4.63,4.63,0,0,0,4.63,4.63h20.17V188.81a58.5,58.5,0,0,0-2.53-17Z" transform="translate(-47.5 -55.9)"/></g><g id="_Group_52" data-name="&lt;Group&gt;"><g id="_Group_53" data-name="&lt;Group&gt;"><path class="cls-1" d="M160.14,74.93h2.2a58,58,0,0,1,58,58v38.66a0,0,0,0,1,0,0H102.17a0,0,0,0,1,0,0V132.9A58,58,0,0,1,160.14,74.93Z"/></g><g id="_Group_54" data-name="&lt;Group&gt;"><path id="_Compound_Path_" data-name="&lt;Compound Path&gt;" class="cls-6" d="M268.56,228.22H148.92V188.81a58.79,58.79,0,0,1,58.72-58.72h2.2a58.79,58.79,0,0,1,58.72,58.72Zm-118.13-1.5H267.06V188.81a57.28,57.28,0,0,0-57.22-57.22h-2.2a57.28,57.28,0,0,0-57.22,57.22Z" transform="translate(-47.5 -55.9)"/></g><g id="_Group_55" data-name="&lt;Group&gt;"><g id="_Group_56" data-name="&lt;Group&gt;"><path class="cls-9" d="M182,102.91a3.22,3.22,0,0,1-3.22,3.22h0a3.22,3.22,0,0,1-3.22-3.22V99.78a3.22,3.22,0,0,1,3.22-3.22h0A3.22,3.22,0,0,1,182,99.78Z" transform="translate(-47.5 -55.9)"/></g><g id="_Group_57" data-name="&lt;Group&gt;"><path class="cls-6" d="M178.81,106.91a4,4,0,0,1-4-4V99.78a4,4,0,1,1,8,0v3.12A4,4,0,0,1,178.81,106.91Zm0-9.56a2.44,2.44,0,0,0-2.44,2.44v3.12a2.44,2.44,0,1,0,4.88,0V99.78A2.44,2.44,0,0,0,178.81,97.35Z" transform="translate(-47.5 -55.9)"/></g><g id="_Group_58" data-name="&lt;Group&gt;"><path class="cls-9" d="M242.11,102.91a3.22,3.22,0,0,1-3.22,3.22h0a3.22,3.22,0,0,1-3.22-3.22V99.78a3.22,3.22,0,0,1,3.22-3.22h0a3.22,3.22,0,0,1,3.22,3.22Z" transform="translate(-47.5 -55.9)"/><path class="cls-6" d="M238.9,106.91a4,4,0,0,1-4-4V99.78a4,4,0,1,1,8,0v3.12A4,4,0,0,1,238.9,106.91Zm0-9.56a2.44,2.44,0,0,0-2.44,2.44v3.12a2.44,2.44,0,1,0,4.88,0V99.78A2.44,2.44,0,0,0,238.9,97.35Z" transform="translate(-47.5 -55.9)"/></g><g id="_Group_59" data-name="&lt;Group&gt;"><path class="cls-10" d="M208.85,151.68h0a29.38,29.38,0,0,1-29.29-29.29V88.74a29.38,29.38,0,0,1,29.29-29.29h0a29.38,29.38,0,0,1,29.29,29.29v33.64A29.38,29.38,0,0,1,208.85,151.68Z" transform="translate(-47.5 -55.9)"/></g><g id="_Group_60" data-name="&lt;Group&gt;" class="cls-11"><path id="_Path_7" data-name="&lt;Path&gt;" class="cls-6" d="M223.65,63.5a29.22,29.22,0,0,1,9.29,21.35v33.64a29.38,29.38,0,0,1-29.29,29.29h0a29,29,0,0,1-14.8-4.05,29.18,29.18,0,0,0,20,7.95h0a29.38,29.38,0,0,0,29.29-29.29V88.74A29.35,29.35,0,0,0,223.65,63.5Z" transform="translate(-47.5 -55.9)"/></g><g id="_Group_61" data-name="&lt;Group&gt;"><path id="_Compound_Path_2" data-name="&lt;Compound Path&gt;" class="cls-6" d="M208.85,152.43a30.08,30.08,0,0,1-30-30V88.74a30,30,0,0,1,60.09,0v33.64A30.08,30.08,0,0,1,208.85,152.43Zm0-92.23a28.58,28.58,0,0,0-28.54,28.54v33.64a28.54,28.54,0,1,0,57.09,0V88.74A28.58,28.58,0,0,0,208.85,60.2Z" transform="translate(-47.5 -55.9)"/></g><g id="_Group_62" data-name="&lt;Group&gt;"><path class="cls-9" d="M208.85,113.68h0c-13.4,0-26.8,10.48-26.8-2.92V93.61c0-13.4-1.27-26.8,12.13-26.8h26.9c13.4,0,14.57,13.41,14.57,26.8v17.16C235.65,124.16,222.25,113.68,208.85,113.68Z" transform="translate(-47.5 -55.9)"/></g><g id="_Group_63" data-name="&lt;Group&gt;"><path class="cls-4" d="M217.42,124.46c0,3-3.84,5.46-8.57,5.46s-8.57-2.44-8.57-5.46Z" transform="translate(-47.5 -55.9)"/></g><g id="_Group_64" data-name="&lt;Group&gt;"><path id="_Compound_Path_3" data-name="&lt;Compound Path&gt;" class="cls-6" d="M208.85,130.67c-5.23,0-9.32-2.73-9.32-6.21v-.75h18.64v.75C218.17,127.95,214.08,130.67,208.85,130.67Zm-7.72-5.46c.62,2.21,3.9,4,7.72,4s7.1-1.75,7.72-4Z" transform="translate(-47.5 -55.9)"/></g><g id="_Group_65" data-name="&lt;Group&gt;"><polygon id="_Path_8" data-name="&lt;Path&gt;" class="cls-6" points="165.75 55.11 160.14 55.11 160.14 53.61 164.25 53.61 164.25 42.58 165.75 42.58 165.75 55.11"/></g><g id="_Group_66" data-name="&lt;Group&gt;"><g id="_Group_67" data-name="&lt;Group&gt;"><path class="cls-10" d="M179.26,100.27h0a7.11,7.11,0,0,1-7.11-7.11V76.06A10.65,10.65,0,0,1,182.8,65.41h0a8.75,8.75,0,0,1,8.75-8.75h43.19a10.59,10.59,0,0,1,10.59,10.59V92.91a6.6,6.6,0,0,1-7,6.58h0V82.54s-4.88,8-20.24,7.95a54.39,54.39,0,0,1-30.62-9.19A15.7,15.7,0,0,1,183.85,86a5,5,0,0,1-4.6,1.31Z" transform="translate(-47.5 -55.9)"/></g><g class="cls-11"><path class="cls-6" d="M179,100.27V87.44a5,5,0,0,0,4.56-1.29,15.58,15.58,0,0,0,3.59-4.68s24.19,12.69,38.58,8c-15.65-6.73-35.93-10.82-39.3-31a8.67,8.67,0,0,0-3.92,7.26,10.57,10.57,0,0,0-10.57,10.57v17A7.05,7.05,0,0,0,179,100.27Z" transform="translate(-47.5 -55.9)"/></g><g id="_Group_68" data-name="&lt;Group&gt;"><path id="_Path_9" data-name="&lt;Path&gt;" class="cls-6" d="M180,101h-.75a7.87,7.87,0,0,1-7.86-7.86V76.06a11.42,11.42,0,0,1,10.68-11.38,9.52,9.52,0,0,1,9.48-8.78h43.19a11.35,11.35,0,0,1,11.34,11.34V92.91a7.35,7.35,0,0,1-7.8,7.33l-.7,0V82.54h1.5v16.2a5.85,5.85,0,0,0,5.5-5.84V67.24a9.85,9.85,0,0,0-9.84-9.84H191.56a8,8,0,0,0-8,8v.75h-.75a9.92,9.92,0,0,0-9.9,9.9v17.1a6.37,6.37,0,0,0,5.61,6.32V86.31l1,.3a4.31,4.31,0,0,0,3.88-1.15A15.13,15.13,0,0,0,186.8,81l1.37.62a16.36,16.36,0,0,1-3.81,5A6,6,0,0,1,180,88.19Z" transform="translate(-47.5 -55.9)"/></g><g id="_Group_69" data-name="&lt;Group&gt;"><path id="_Path_10" data-name="&lt;Path&gt;" class="cls-6" d="M218.14,91.24h0c-18.59,0-35.06-12-35.23-12.17l.89-1.21c.16.12,16.25,11.86,34.34,11.88h0c14.72,0,21.6-10.11,21.66-10.21l1.25.83C240.76,80.8,233.69,91.24,218.14,91.24Z" transform="translate(-47.5 -55.9)"/></g></g><g id="_Group_70" data-name="&lt;Group&gt;"><rect id="_Path_11" data-name="&lt;Path&gt;" class="cls-6" x="144.28" y="38.44" width="10.17" height="1.5"/></g><circle class="cls-6" cx="172.22" cy="45.44" r="1.79"/><circle class="cls-6" cx="151.22" cy="45.44" r="1.79"/><g id="_Group_71" data-name="&lt;Group&gt;"><rect id="_Path_12" data-name="&lt;Path&gt;" class="cls-6" x="168.02" y="38.44" width="10.17" height="1.5"/></g></g></g><g id="_Group_72" data-name="&lt;Group&gt;"><g id="_Group_73" data-name="&lt;Group&gt;"><path class="cls-9" d="M136,226.68h0a2.91,2.91,0,0,1-2.9-2.9v-4.07a2.91,2.91,0,0,1,2.9-2.9h0a2.91,2.91,0,0,1,2.9,2.9v4.07A2.91,2.91,0,0,1,136,226.68Z" transform="translate(-47.5 -55.9)"/></g><g id="_Group_74" data-name="&lt;Group&gt;"><path id="_Compound_Path_4" data-name="&lt;Compound Path&gt;" class="cls-6" d="M136,227.43a3.65,3.65,0,0,1-3.65-3.65v-4.07a3.65,3.65,0,1,1,7.3,0v4.07A3.65,3.65,0,0,1,136,227.43Zm0-9.87a2.15,2.15,0,0,0-2.15,2.15v4.07a2.15,2.15,0,1,0,4.3,0v-4.07A2.15,2.15,0,0,0,136,217.56Z" transform="translate(-47.5 -55.9)"/></g><g id="_Group_75" data-name="&lt;Group&gt;"><path class="cls-9" d="M160.13,226.68h0a2.91,2.91,0,0,1-2.9-2.9v-4.07a2.91,2.91,0,0,1,2.9-2.9h0a2.91,2.91,0,0,1,2.9,2.9v4.07A2.91,2.91,0,0,1,160.13,226.68Z" transform="translate(-47.5 -55.9)"/></g><g id="_Group_76" data-name="&lt;Group&gt;"><path id="_Compound_Path_5" data-name="&lt;Compound Path&gt;" class="cls-6" d="M160.13,227.43a3.65,3.65,0,0,1-3.65-3.65v-4.07a3.65,3.65,0,0,1,7.3,0v4.07A3.65,3.65,0,0,1,160.13,227.43Zm0-9.87a2.15,2.15,0,0,0-2.15,2.15v4.07a2.15,2.15,0,1,0,4.3,0v-4.07A2.15,2.15,0,0,0,160.13,217.56Z" transform="translate(-47.5 -55.9)"/></g><g id="_Group_77" data-name="&lt;Group&gt;"><g id="_Group_78" data-name="&lt;Group&gt;"><path class="cls-12" d="M160,226.68V222.2a11.59,11.59,0,0,0-11.56-11.56h0a11.59,11.59,0,0,0-11.56,11.56v4.48Z" transform="translate(-47.5 -55.9)"/></g><g id="_Group_79" data-name="&lt;Group&gt;"><path id="_Compound_Path_6" data-name="&lt;Compound Path&gt;" class="cls-6" d="M160.79,227.43H136.17V222.2a12.31,12.31,0,1,1,24.61,0Zm-23.11-1.5h21.61V222.2a10.81,10.81,0,1,0-21.61,0Z" transform="translate(-47.5 -55.9)"/></g></g><g id="_Group_80" data-name="&lt;Group&gt;"><g id="_Group_81" data-name="&lt;Group&gt;"><path class="cls-13" d="M160,226.68V222.2a11.59,11.59,0,0,0-11.56-11.56h0a11.59,11.59,0,0,0-11.56,11.56v4.48Z" transform="translate(-47.5 -55.9)"/></g><g id="_Group_82" data-name="&lt;Group&gt;"><path class="cls-14" d="M148.48,210.64h0a11.43,11.43,0,0,0-4.08.76,11.59,11.59,0,0,1,7.48,10.8v4.48H160V222.2A11.59,11.59,0,0,0,148.48,210.64Z" transform="translate(-47.5 -55.9)"/></g><g id="_Group_83" data-name="&lt;Group&gt;"><path id="_Compound_Path_7" data-name="&lt;Compound Path&gt;" class="cls-6" d="M160.79,227.43H136.17V222.2a12.31,12.31,0,1,1,24.61,0Zm-23.11-1.5h21.61V222.2a10.81,10.81,0,1,0-21.61,0Z" transform="translate(-47.5 -55.9)"/></g></g><g id="_Group_84" data-name="&lt;Group&gt;"><path class="cls-9" d="M154.95,220.28h0a3.2,3.2,0,0,1-3.19-3.19v-4.48a3.2,3.2,0,0,1,3.19-3.19h0a3.2,3.2,0,0,1,3.19,3.19v4.48A3.2,3.2,0,0,1,154.95,220.28Z" transform="translate(-47.5 -55.9)"/></g><g id="_Group_85" data-name="&lt;Group&gt;"><path id="_Compound_Path_8" data-name="&lt;Compound Path&gt;" class="cls-6" d="M154.95,221a4,4,0,0,1-3.94-3.94v-4.48a3.94,3.94,0,1,1,7.88,0v4.48A4,4,0,0,1,154.95,221Zm0-10.86a2.44,2.44,0,0,0-2.44,2.44v4.48a2.44,2.44,0,1,0,4.88,0v-4.48A2.45,2.45,0,0,0,154.95,210.17Z" transform="translate(-47.5 -55.9)"/></g><g id="_Group_86" data-name="&lt;Group&gt;"><rect class="cls-9" x="96.91" y="151.99" width="6.38" height="10.86" rx="2.38" ry="2.38"/></g><g id="_Group_87" data-name="&lt;Group&gt;"><path id="_Compound_Path_9" data-name="&lt;Compound Path&gt;" class="cls-6" d="M147.6,219.51a4,4,0,0,1-3.94-3.94v-4.48a3.94,3.94,0,1,1,7.88,0v4.48A4,4,0,0,1,147.6,219.51Zm0-10.86a2.44,2.44,0,0,0-2.44,2.44v4.48a2.44,2.44,0,1,0,4.88,0v-4.48A2.44,2.44,0,0,0,147.6,208.64Z" transform="translate(-47.5 -55.9)"/></g><g id="_Group_88" data-name="&lt;Group&gt;"><path class="cls-9" d="M140.25,220.69h0a3.2,3.2,0,0,1-3.19-3.19V213a3.2,3.2,0,0,1,3.19-3.19h0a3.2,3.2,0,0,1,3.19,3.19v4.48A3.2,3.2,0,0,1,140.25,220.69Z" transform="translate(-47.5 -55.9)"/></g><g id="_Group_89" data-name="&lt;Group&gt;"><path id="_Compound_Path_10" data-name="&lt;Compound Path&gt;" class="cls-6" d="M140.25,221.44a4,4,0,0,1-3.94-3.94V213a3.94,3.94,0,1,1,7.88,0v4.48A4,4,0,0,1,140.25,221.44Zm0-10.86A2.44,2.44,0,0,0,137.8,213v4.48a2.44,2.44,0,1,0,4.88,0V213A2.44,2.44,0,0,0,140.25,210.58Z" transform="translate(-47.5 -55.9)"/></g></g></g><g id="laptop"><g id="_Group_90" data-name="&lt;Group&gt;"><g id="_Group_91" data-name="&lt;Group&gt;"><path class="cls-4" d="M260.24,227.59H159.63a4.93,4.93,0,0,1-4.87-4.13l-.72-4.37h46.63l1.78,2.56h12.88l1.93-2.56H266.4l-.62,3.8A5.61,5.61,0,0,1,260.24,227.59Z" transform="translate(-47.5 -55.9)"/></g><g id="_Group_92" data-name="&lt;Group&gt;"><path id="_Compound_Path_11" data-name="&lt;Compound Path&gt;" class="cls-6" d="M260.24,228.34H159.63a5.66,5.66,0,0,1-5.61-4.76l-.86-5.24h47.91l1.78,2.56H215l1.93-2.56h50.38l-.77,4.67A6.34,6.34,0,0,1,260.24,228.34Zm-105.31-8.5.57,3.5a4.17,4.17,0,0,0,4.13,3.5H260.24a4.84,4.84,0,0,0,4.8-4.07l.48-2.93H217.65l-1.93,2.56H202.07l-1.78-2.56Z" transform="translate(-47.5 -55.9)"/></g><g id="_Group_93" data-name="&lt;Group&gt;"><rect class="cls-15" x="111.47" y="93.48" width="103.08" height="74.09" rx="1" ry="1"/></g><g id="_Group_94" data-name="&lt;Group&gt;"><rect class="cls-4" x="111.47" y="93.48" width="103.08" height="74.09" rx="1" ry="1"/></g><g id="_Group_95" data-name="&lt;Group&gt;"><path id="_Compound_Path_12" data-name="&lt;Compound Path&gt;" class="cls-6" d="M261,224.22H160a1.75,1.75,0,0,1-1.75-1.75V150.38a1.75,1.75,0,0,1,1.75-1.75H261a1.75,1.75,0,0,1,1.75,1.75v72.09A1.75,1.75,0,0,1,261,224.22ZM160,150.13a.25.25,0,0,0-.25.25v72.09a.25.25,0,0,0,.25.25H261a.25.25,0,0,0,.25-.25V150.38a.25.25,0,0,0-.25-.25Z" transform="translate(-47.5 -55.9)"/></g><g id="_Group_96" data-name="&lt;Group&gt;"><circle class="cls-13" cx="163.01" cy="130.52" r="8.97"/></g></g></g><g id="line"><g id="_Group_97" data-name="&lt;Group&gt;"><g id="_Group_98" data-name="&lt;Group&gt;"><rect id="_Path_13" data-name="&lt;Path&gt;" class="cls-6" x="12.27" y="170.98" width="334.25" height="1.5"/></g><g id="_Group_99" data-name="&lt;Group&gt;"><rect id="_Path_14" data-name="&lt;Path&gt;" class="cls-6" x="349.6" y="170.98" width="4.9" height="1.5"/></g><g id="_Group_100" data-name="&lt;Group&gt;"><rect id="_Path_15" data-name="&lt;Path&gt;" class="cls-6" y="170.98" width="8.3" height="1.5"/></g></g></g></svg>